<?xml version="1.0" encoding="UTF-8"?>
<svg id="Livello_2" data-name="Livello 2" xmlns="http://www.w3.org/2000/svg" xmlns:xlink="http://www.w3.org/1999/xlink" viewBox="0 0 487.9 265.89">
  <defs>
    <style>
      .cls-1 {
        fill: url(#Sfumatura_senza_nome_28-7);
      }

      .cls-2 {
        fill: url(#Sfumatura_senza_nome_28-3);
      }

      .cls-3 {
        fill: url(#Sfumatura_senza_nome_28-5);
      }

      .cls-4 {
        fill: url(#Sfumatura_senza_nome_28-2);
      }

      .cls-5 {
        fill: url(#Sfumatura_senza_nome_28-4);
      }

      .cls-6 {
        fill: url(#Sfumatura_senza_nome_28-6);
      }

      .cls-7 {
        fill: url(#Sfumatura_senza_nome_28);
      }
    </style>
    <linearGradient id="Sfumatura_senza_nome_28" data-name="Sfumatura senza nome 28" x1="-61.56" y1=".95" x2="431.44" y2="238.95" gradientUnits="userSpaceOnUse">
      <stop offset="0" stop-color="#53b0ff"/>
      <stop offset=".51" stop-color="#e5a5eb"/>
      <stop offset="1" stop-color="#ff2d53"/>
    </linearGradient>
    <linearGradient id="Sfumatura_senza_nome_28-2" data-name="Sfumatura senza nome 28" x1="-17.39" y1="-90.54" x2="475.61" y2="147.46" xlink:href="#Sfumatura_senza_nome_28"/>
    <linearGradient id="Sfumatura_senza_nome_28-3" data-name="Sfumatura senza nome 28" x1="-53.13" y1="-16.52" x2="439.87" y2="221.48" xlink:href="#Sfumatura_senza_nome_28"/>
    <linearGradient id="Sfumatura_senza_nome_28-4" data-name="Sfumatura senza nome 28" x1="-82.38" y1="44.06" x2="410.62" y2="282.06" xlink:href="#Sfumatura_senza_nome_28"/>
    <linearGradient id="Sfumatura_senza_nome_28-5" data-name="Sfumatura senza nome 28" x1="-36.74" y1="-50.47" x2="456.26" y2="187.53" xlink:href="#Sfumatura_senza_nome_28"/>
    <linearGradient id="Sfumatura_senza_nome_28-6" data-name="Sfumatura senza nome 28" x1="-52.89" y1="-17.03" x2="440.11" y2="220.97" xlink:href="#Sfumatura_senza_nome_28"/>
    <linearGradient id="Sfumatura_senza_nome_28-7" data-name="Sfumatura senza nome 28" x1="-17.49" y1="-90.34" x2="475.51" y2="147.66" xlink:href="#Sfumatura_senza_nome_28"/>
  </defs>
  <g id="Livello_1-2" data-name="Livello 1">
    <g>
      <path class="cls-7" d="m413.02,181.66c-2.82,0-5.24,2.07-5.6,4.86-2.39,18.63-18.35,33.07-37.62,33.07s-35.23-14.44-37.62-33.07c-.36-2.79-2.78-4.86-5.6-4.86h-35.14c-3.29,0-5.89,2.79-5.66,6.07,3.12,43.62,39.61,78.16,84.02,78.16s80.89-34.54,84.02-78.16c.23-3.28-2.37-6.07-5.66-6.07h-35.14Z"/>
      <path class="cls-4" d="m469.57,163.32l-34.58-29.1c-2.12-1.78-5.04-1.77-7.15.04l-33.86,29.03c-3.42,2.93-8.4.92-9.36-3.77l-9.53-40.4c-.51-2.52.33-5.14,2.17-6.71l50.55-43.26c2.12-1.81,5.06-1.81,7.18,0l50.6,43.3c1.81,1.55,2.66,4.12,2.19,6.62l-8.87,40.35c-.9,4.73-5.88,6.81-9.33,3.9Z"/>
      <path class="cls-2" d="m232.71,171.78h-35.95c-2.61,0-4.81-2-5.14-4.65-6.17-48.95-1.71-86.81,1.04-108.18.34-2.64,2.54-4.6,5.14-4.6h36c3.17,0,5.61,2.88,5.13,6.09-2.48,16.84-7.99,54.59-1.09,105.3.43,3.19-1.99,6.04-5.13,6.04Z"/>
      <path class="cls-5" d="m66.63,173.18c-9.87,0-19-1.54-27.4-4.63-8.4-3.09-15.43-7.31-21.1-12.68-5.67-5.36-10.11-11.73-13.32-19.09-3.21-7.36-4.81-15.22-4.81-23.58s1.47-15.91,4.42-23.21c2.95-7.3,7.05-13.63,12.31-19,5.26-5.36,11.71-9.61,19.37-12.73,7.66-3.12,15.98-4.68,24.95-4.68,7.56,0,26,1.75,39.34,16.22,16.51,17.9,7.72,64.43-44.87,48.99l-9.68-3.85c-1.54-.61-3.17.8-2.7,2.39,1.31,4.43,4.02,7.84,8.15,10.23,5.22,3.03,11.78,4.54,19.66,4.54,11.34,0,21.58-2.35,30.72-7.06,3.35-1.72,7.36.5,7.59,4.26l1.77,28.9c.19,3.13-1.52,6.11-4.38,7.41-4.09,1.86-8.91,3.45-14.45,4.78-7.82,1.87-16.34,2.81-25.57,2.81Zm-21.71-71.94c-.59,1.02-.15,2.35.93,2.83,5.91,2.66,23.95,10,31.35,4.2,3.87-3.03,1.63-10.85-5.11-13.97-2.89-1.34-6.46-2.07-10.37-2.07s-7.37.92-10.58,2.76c-2.61,1.5-4.68,3.58-6.23,6.25Z"/>
      <path class="cls-3" d="m243.41,113.95c0-8.97,1.58-17.22,4.73-24.74,3.15-7.52,7.45-13.81,12.91-18.88,5.45-5.07,11.83-9,19.15-11.8,7.31-2.8,15.13-4.2,23.45-4.2,6.62,0,12.97.89,19.05,2.67,6.08,1.78,11.64,4.38,16.69,7.82,5.04,3.44,9.42,7.55,13.14,12.32,3.72,4.78,6.6,10.31,8.65,16.61,2.05,6.29,3.07,13.02,3.07,20.19,0,8.8-1.61,16.94-4.82,24.43-3.21,7.49-7.55,13.77-13,18.84-5.45,5.07-11.88,9.03-19.29,11.89-7.41,2.85-15.24,4.28-23.5,4.28s-16.14-1.38-23.45-4.15c-7.31-2.77-13.69-6.66-19.15-11.67-5.45-5.01-9.76-11.28-12.91-18.79-3.15-7.52-4.73-15.79-4.73-24.82Zm48.21-12.78c-2.71,3.27-4.07,7.54-4.07,12.8s1.35,9.57,4.07,12.91c2.71,3.34,6.72,5.01,12.02,5.01s9.33-1.67,12.07-5.01c2.74-3.34,4.11-7.65,4.11-12.91s-1.37-9.41-4.11-12.73c-2.74-3.32-6.76-4.98-12.07-4.98s-9.31,1.64-12.02,4.91Z"/>
      <path class="cls-6" d="m181.72,166.92c.14,2.31-1.36,4.27-3.52,5.12s-4.15,1.14-7.57,1.14c-12.4,0-23.2-2.59-32.73-9.63-15.89-11.72-22.61-32.3-20.67-54.78,2.47-28.47,10.18-83.35,12.77-101.99.36-2.56,2.55-4.47,5.13-4.47h36.01c3.15,0,5.58,2.78,5.13,5.9-2.39,16.77-10.6,74.44-13.22,104.55-.23,2.87-.5,8.83,3.07,11.86,2.06,1.75,5.76,2.04,8.77,1.92,2.68-.11,4.95,1.96,5.16,4.64.85,10.96,1.2,28.29,1.66,35.73Z"/>
      <ellipse class="cls-1" cx="218.67" cy="23.67" rx="24.74" ry="23.67"/>
    </g>
  </g>
</svg>