<?xml version="1.0" encoding="UTF-8"?>
<svg id="Livello_2" data-name="Livello 2" xmlns="http://www.w3.org/2000/svg" viewBox="0 0 244.5 211.55">
  <defs>
    <style>
      .cls-1 {
        fill: #fff;
      }
    </style>
  </defs>
  <g id="Livello_1-2" data-name="Livello 1">
    <g>
      <path class="cls-1" d="m169.61,127.32c-2.82,0-5.24,2.07-5.6,4.86-2.39,18.63-18.35,33.07-37.62,33.07s-35.23-14.44-37.62-33.07c-.36-2.79-2.78-4.86-5.6-4.86h-35.14c-3.29,0-5.89,2.79-5.66,6.07,3.12,43.62,39.61,78.16,84.02,78.16s80.89-34.54,84.02-78.16c.23-3.28-2.37-6.07-5.66-6.07h-35.14Z"/>
      <path class="cls-1" d="m226.16,108.98l-34.58-29.1c-2.12-1.78-5.04-1.77-7.15.04l-33.86,29.03c-3.42,2.93-8.4.92-9.36-3.77l-9.53-40.4c-.51-2.52.33-5.14,2.17-6.71l50.55-43.26c2.12-1.81,5.06-1.81,7.18,0l50.6,43.3c1.81,1.55,2.66,4.12,2.19,6.62l-8.87,40.35c-.9,4.73-5.88,6.81-9.33,3.9Z"/>
      <path class="cls-1" d="m0,59.61c0-8.97,1.58-17.22,4.73-24.74,3.15-7.52,7.45-13.81,12.91-18.88,5.45-5.07,11.83-9,19.15-11.8C44.09,1.4,51.91,0,60.23,0c6.62,0,12.97.89,19.05,2.67,6.08,1.78,11.64,4.38,16.69,7.82,5.04,3.44,9.42,7.55,13.14,12.32,3.72,4.78,6.6,10.31,8.65,16.61,2.05,6.29,3.07,13.02,3.07,20.19,0,8.8-1.61,16.94-4.82,24.43-3.21,7.49-7.55,13.77-13,18.84-5.45,5.07-11.88,9.03-19.29,11.89-7.41,2.85-15.24,4.28-23.5,4.28s-16.14-1.38-23.45-4.15c-7.31-2.77-13.69-6.66-19.15-11.67-5.45-5.01-9.76-11.28-12.91-18.79-3.15-7.52-4.73-15.79-4.73-24.82Zm48.21-12.78c-2.71,3.27-4.07,7.54-4.07,12.8s1.35,9.57,4.07,12.91c2.71,3.34,6.72,5.01,12.02,5.01s9.33-1.67,12.07-5.01c2.74-3.34,4.11-7.65,4.11-12.91s-1.37-9.41-4.11-12.73c-2.74-3.32-6.76-4.98-12.07-4.98s-9.31,1.64-12.02,4.91Z"/>
    </g>
  </g>
</svg>